<svg xmlns="http://www.w3.org/2000/svg" viewBox="275 270 476 482" width="88" height="88" fill="#14b8a6">
  <path d="M369.142578,741.073730 C343.245422,731.708496 321.626495,716.781860 304.860809,695.453003 C288.680267,674.868591 279.117615,651.522339 276.472534,625.159912 C273.565063,596.182129 278.999634,569.227783 292.894775,543.792542 C303.416412,524.532593 317.724152,508.404816 333.954407,493.857056 C350.969177,478.606262 369.377228,465.095551 387.426208,451.136230 C392.035278,447.571564 396.554260,443.890228 401.108215,440.254486 C403.636383,438.236053 404.276825,436.171173 401.581207,433.663971 C377.432159,411.202759 353.322906,388.698639 329.174744,366.236420 C327.733215,364.895538 326.058167,363.805695 324.341492,362.483276 C320.350037,365.634918 319.321259,370.134033 317.768372,374.221161 C312.808167,387.276550 312.735077,387.481812 323.163940,396.428284 C338.712585,409.766968 354.498566,422.828949 370.185364,436.006592 C370.695587,436.435272 371.231964,436.832733 371.743652,437.259735 C377.773010,442.291260 377.836853,443.332886 371.655884,447.981354 C362.616516,454.779541 364.657867,455.649078 355.413300,447.637634 C341.568451,435.639526 327.468079,423.936066 313.462311,412.124023 C312.850128,411.607758 312.097595,411.257935 310.663483,410.366058 C309.808350,415.959656 309.924438,421.030518 310.685699,425.997253 C313.226776,442.575958 319.506073,457.722137 329.342438,471.272614 C332.039093,474.987427 332.031158,477.372040 328.616943,480.503296 C322.609192,486.013153 316.914337,491.871368 311.215942,497.708160 C308.695557,500.289764 306.859955,500.602081 304.490967,497.402435 C288.791931,476.198822 278.649719,452.841614 276.655670,426.306824 C273.221466,380.608276 287.989807,341.701782 321.269165,310.285431 C344.236664,288.603668 372.021179,277.219879 403.511444,274.561310 C419.800842,273.186035 435.763336,274.612000 451.496338,278.766144 C468.960144,283.377289 484.623444,291.691284 499.049347,302.459412 C501.552643,304.327972 502.062958,305.897797 499.606323,308.458282 C493.727173,314.585846 488.060516,320.924530 482.478729,327.326782 C480.092163,330.064178 478.198181,330.592041 474.973328,328.254974 C463.814270,320.167877 451.594910,314.145538 438.105713,310.969666 C435.148682,310.273407 432.151672,308.526764 428.405243,310.876648 C431.811523,315.195557 435.054993,319.466003 438.465454,323.598633 C445.144135,331.691589 451.832825,339.779663 458.698608,347.712860 C460.826447,350.171478 461.192444,352.228912 459.022156,354.681580 C456.182983,357.890106 454.557404,362.057831 450.855927,365.236328 C446.168152,361.530823 442.800262,356.788849 439.095978,352.405731 C427.807587,339.048920 416.604950,325.619507 405.394318,312.197174 C403.515045,309.947174 401.438995,309.109161 398.381317,309.723877 C389.754059,311.458282 381.270935,313.492096 373.714020,317.389130 C373.212494,320.098053 374.790588,321.047607 375.907379,322.195557 C396.817352,343.688141 417.743042,365.165466 438.665527,386.645874 C438.781799,386.765259 438.900177,386.882568 439.016693,387.001709 C445.464142,393.596619 445.537842,393.607544 451.299774,386.425171 C467.351105,366.416870 482.721100,345.862854 499.907257,326.767792 C519.758911,304.711212 542.692078,286.826752 571.157166,277.828979 C609.544189,265.694824 647.084717,268.383392 682.592102,288.500214 C706.882690,302.262115 725.319397,321.855682 737.911987,346.684509 C743.247742,357.205048 747.208008,368.400787 749.919128,379.968170 C750.904968,384.174408 750.080444,387.546326 747.193665,390.984070 C725.402466,416.934814 698.526611,434.460846 664.714478,439.622620 C628.654358,445.127563 595.298279,437.723999 565.005249,416.866699 C549.424438,406.139038 537.040833,392.282745 524.751160,378.219666 C522.351562,375.473785 522.072754,373.280762 524.720337,370.493713 C530.455994,364.456116 536.052307,358.279999 541.540222,352.015625 C544.420227,348.728088 546.332458,349.101349 548.883606,352.540070 C552.946716,358.017029 557.381653,363.235687 561.894592,368.356232 C565.963379,372.972809 567.360962,372.563599 569.440796,366.631348 C573.791992,354.219940 578.340759,341.871979 582.378357,329.359222 C584.038147,324.215393 587.122681,321.642670 592.209961,320.913757 C595.938660,320.379547 599.545593,318.906921 603.424500,319.262451 C604.846191,321.874634 603.307556,323.951843 602.580566,326.032410 C596.155396,344.420258 589.792358,362.832336 583.069092,381.111511 C581.601685,385.101196 582.388062,387.132263 585.863220,389.174866 C590.465942,391.880219 595.087524,394.482178 599.953308,396.700287 C603.562622,398.345581 605.477905,397.418030 606.693970,393.719269 C610.646179,381.698334 614.763245,369.731659 618.780518,357.731995 C623.484436,343.681213 628.169617,329.624115 632.824280,315.557007 C635.035217,308.875275 633.954102,307.159790 627.058777,306.303101 C596.479858,302.503815 569.909180,312.279022 546.157593,330.774017 C529.064819,344.083923 515.720276,360.986420 502.411285,377.901398 C485.423553,399.491791 469.582428,422.002930 450.621033,442.017181 C438.434662,454.880188 425.130035,466.431580 411.118774,477.217865 C387.519165,495.385590 362.622314,512.016602 342.402252,534.224365 C325.923523,552.322937 314.184631,572.939758 310.623230,597.535522 C310.023132,601.680176 309.352966,606.035767 310.955902,610.078369 C313.560303,610.738220 314.601288,608.926941 315.960022,607.840881 C330.403442,596.296021 344.338135,584.130310 358.984406,572.823792 C362.995544,569.727295 366.180756,569.296326 369.888275,572.645752 C370.377716,573.087952 370.995361,573.385437 371.537231,573.772888 C379.260010,579.295105 379.224884,579.649231 371.908875,585.559998 C353.254089,600.631470 334.664795,615.784119 315.994171,630.835876 C313.590149,632.773926 312.900269,634.799133 313.792480,637.793152 C315.557312,643.715454 317.709534,649.479248 320.253510,655.094666 C322.524078,660.106384 323.606812,660.319397 327.799286,656.501709 C344.302185,641.474182 360.746796,626.382568 377.243713,611.348450 C384.752960,604.505066 392.312286,597.716187 399.889496,590.947998 C405.093628,586.299500 405.068237,584.867310 399.617889,580.604492 C385.319519,569.421570 371.027924,558.229858 356.756012,547.013245 C351.804443,543.121704 351.929993,542.733582 356.138458,538.199707 C361.963837,531.923950 369.127777,527.267944 375.515594,521.682129 C377.204041,520.205750 378.625305,520.232117 380.374146,521.570374 C412.506531,546.158142 445.584930,569.596802 470.012421,602.814941 C479.775330,616.091309 490.141449,628.936462 499.522980,642.510193 C503.603577,648.414307 503.550110,649.084595 498.490509,654.403748 C493.784515,659.351257 489.028534,664.253784 484.424408,669.294739 C481.380554,672.627502 479.155609,672.262634 476.525299,668.650635 C467.699921,656.531311 458.718689,644.523804 449.672363,632.567932 C445.672699,627.281799 445.240692,627.406006 440.681030,632.149780 C419.094360,654.608276 397.481201,677.041260 375.896362,699.501465 C374.666107,700.781616 373.004303,701.808960 372.746765,704.621155 C382.201935,708.199829 391.775848,711.739685 402.253387,711.675720 C404.851135,711.659790 406.069031,709.196594 407.521057,707.424316 C420.823059,691.188965 434.170746,674.989807 447.312286,658.625183 C450.095093,655.159912 451.710693,655.046631 454.335144,658.736389 C461.750336,669.161560 461.919373,669.123596 453.939301,679.180786 C446.588593,688.444763 439.093445,697.594055 431.688171,706.814880 C430.679962,708.070251 429.186096,709.078369 429.225159,711.088806 C430.870941,712.454041 432.673920,711.648926 434.367523,711.307190 C448.624969,708.429749 461.424042,702.346130 473.441376,694.196777 C494.965088,679.600769 511.649689,660.108398 528.292480,640.596191 C540.329163,626.484192 552.517822,612.615662 568.222900,602.390625 C595.587769,584.574402 625.429993,576.865540 658.042480,580.400940 C688.889587,583.744934 714.944824,596.980042 737.083557,618.415405 C741.657776,622.844360 745.252991,628.074829 749.287842,632.945984 C750.810669,634.784363 750.874084,636.792114 750.455566,639.055359 C747.603394,654.479675 741.826721,668.926514 733.783508,682.169128 C712.532288,717.157654 682.252258,740.611023 641.645142,748.302002 C598.922241,756.393616 560.463196,745.681396 526.650452,718.291382 C523.734192,715.929138 524.125366,714.357300 526.683777,711.995544 C532.310547,706.801086 537.886841,701.514587 543.048706,695.867981 C546.120728,692.507507 548.401245,692.105347 552.226318,694.821960 C566.661255,705.074036 582.498413,712.307251 600.101990,715.096680 C610.165100,716.691284 620.271606,716.976562 630.384216,714.986755 C634.404236,714.195740 635.131775,712.456787 633.864990,708.707520 C624.805847,681.895081 615.910156,655.027527 606.919373,628.191895 C605.031006,622.555359 604.390930,622.354126 599.137268,624.988159 C581.687378,633.737061 581.639465,633.753235 587.900940,652.274597 C592.911987,667.097168 598.068604,681.870422 603.127930,696.676758 C603.652954,698.213074 604.591797,699.740112 603.788330,701.479370 C594.429504,704.028381 584.157532,698.640381 581.356262,689.791138 C577.789001,678.522156 574.190063,667.262756 570.508545,656.030823 C569.858948,654.048767 569.487488,651.755798 566.997986,650.525879 C563.168518,652.523743 560.663208,656.097656 557.772644,659.228882 C546.248779,671.712402 535.653625,685.044373 523.596313,697.034912 C503.914429,716.607910 482.270752,733.249146 455.407867,741.985413 C426.675232,751.329651 398.066254,750.441223 369.142578,741.073730 M687.477417,673.016846 C688.652344,675.468567 688.749207,678.489380 691.000732,680.343689 C691.588745,680.111206 691.968567,680.068420 692.182434,679.857483 C693.008850,679.042236 693.797180,678.186768 694.573120,677.322388 C702.015991,669.031860 707.235413,659.506165 711.180481,649.089844 C712.688965,645.106995 712.279602,642.477417 709.218872,639.942688 C699.035217,631.509338 688.164795,624.229187 675.567322,619.825928 C660.199524,614.454285 644.476624,612.914551 628.343811,615.166687 C623.918945,615.784424 622.621033,617.698425 624.286621,621.943542 C625.742004,625.652954 626.741638,629.539368 627.994080,633.330566 C635.770203,656.869385 643.592346,680.393005 651.310608,703.950745 C652.391785,707.250671 653.952515,708.333923 657.135559,706.462402 C661.867493,703.680298 666.619446,700.926819 671.439514,698.301880 C674.752563,696.497620 675.587402,694.230225 674.347534,690.536316 C668.207520,672.242310 662.265381,653.881775 656.301880,635.528870 C655.555237,633.231262 654.065552,631.033508 655.014282,627.849426 C659.790710,627.802002 664.314392,629.475281 668.970276,630.296997 C672.760193,630.965820 674.578247,633.120300 675.694580,636.667908 C679.439331,648.568970 683.421143,660.395447 687.477417,673.016846 M648.246338,327.637695 C639.735474,352.958496 631.224609,378.279327 622.857117,403.173553 C623.943420,404.729004 625.005615,404.677612 625.963379,404.880402 C635.689575,406.940216 645.552307,406.670074 655.262512,405.487915 C675.762756,402.992096 693.927673,394.864288 709.550171,381.218658 C711.537720,379.482574 712.255798,377.651428 711.469666,375.058960 C707.840759,363.091736 701.759155,352.487793 693.803101,342.911957 C692.976196,341.916718 692.151550,340.747955 690.449097,341.086517 C688.991150,342.304108 688.679871,344.157623 688.130127,345.876129 C683.873230,359.183472 679.627869,372.494507 675.391541,385.808472 C674.837524,387.549530 674.583435,389.673309 672.678223,390.343964 C666.900879,392.377777 661.005005,393.882324 654.981567,393.019043 C654.151001,390.733276 655.077698,389.242615 655.584656,387.684082 C661.757812,368.706879 667.846680,349.701416 674.181641,330.778351 C675.387878,327.175049 675.050537,324.811798 671.619507,322.904877 C667.113647,320.400635 662.758850,317.626221 658.295288,315.043793 C655.217896,313.263336 652.927795,313.804230 651.759644,317.464233 C650.748657,320.632233 649.611816,323.760101 648.246338,327.637695 M431.803192,406.463470 C412.843018,385.645935 392.873016,365.801392 373.212799,345.658447 C368.327545,340.653259 363.399353,335.689667 358.547150,330.652740 C355.991394,327.999664 353.510986,327.908051 350.726807,330.322021 C346.448029,334.031799 342.144806,337.695068 338.191742,341.774994 C335.143921,344.920563 334.988037,347.144135 338.524109,350.355682 C358.370972,368.381287 377.989105,386.658813 397.687469,404.847992 C403.437042,410.157104 409.160736,415.495178 414.975281,420.732300 C416.139740,421.781128 417.770905,423.616669 419.290070,422.205139 C424.166656,417.674072 429.799896,413.705261 431.803192,406.463470 M395.490784,620.018799 C376.234192,637.165588 356.989410,654.325562 337.707947,671.444275 C334.921021,673.918640 334.626984,676.318420 337.200012,679.115540 C341.489197,683.778198 345.975494,688.162659 351.194580,691.847900 C354.688538,694.314941 357.097107,693.723083 359.767120,690.757202 C364.663696,685.318054 369.711578,680.012390 374.777954,674.729309 C393.315308,655.399048 411.846710,636.062622 430.492859,616.837524 C432.925232,614.329651 432.904083,612.476562 430.560883,610.149658 C427.965363,607.572205 425.281677,605.033203 423.042145,602.161011 C420.516022,598.921387 418.350250,599.298645 415.635986,601.804932 C409.158936,607.785706 402.570343,613.645630 395.490784,620.018799 z"/>
</svg>
